<svg width="167" height="52" viewBox="0 0 167 52" fill="none" xmlns="http://www.w3.org/2000/svg">
<rect width="167" height="52" rx="6" fill="black"/>
<path d="M55.4959 27.7373H54.2899V31H52.0618V21.7578H55.699C56.7951 21.7578 57.652 22.0011 58.2698 22.4878C58.8877 22.9744 59.1966 23.6621 59.1966 24.5508C59.1966 25.194 59.0654 25.7272 58.803 26.1504C58.5449 26.5736 58.1387 26.9163 57.5843 27.1787L59.514 30.9048V31H57.1273L55.4959 27.7373ZM54.2899 26.0171H55.699C56.1222 26.0171 56.4396 25.9071 56.6512 25.687C56.867 25.4627 56.9749 25.1517 56.9749 24.7539C56.9749 24.3561 56.867 24.0451 56.6512 23.8208C56.4354 23.5923 56.118 23.478 55.699 23.478H54.2899V26.0171ZM66.7942 27.0835H63.2903V29.2861H67.429V31H61.0623V21.7578H67.4417V23.478H63.2903V25.4268H66.7942V27.0835ZM76.4231 29.8574C76.0804 30.2383 75.5789 30.5451 74.9187 30.7778C74.2586 31.0106 73.5349 31.127 72.7478 31.127C71.5375 31.127 70.5706 30.7567 69.847 30.0161C69.1233 29.2756 68.7361 28.2451 68.6853 26.9248L68.679 26.125C68.679 25.2152 68.8398 24.4217 69.1614 23.7446C69.483 23.0633 69.9422 22.5407 70.5388 22.1768C71.1398 21.8086 71.8338 21.6245 72.6209 21.6245C73.7719 21.6245 74.6648 21.889 75.2996 22.418C75.9386 22.9427 76.311 23.7277 76.4168 24.7729H74.2713C74.1951 24.2567 74.0301 23.8885 73.7762 23.6685C73.5222 23.4484 73.1625 23.3384 72.6971 23.3384C72.1385 23.3384 71.7068 23.5754 71.4021 24.0493C71.0974 24.5233 70.943 25.2004 70.9388 26.0806V26.6392C70.9388 27.5617 71.0953 28.2557 71.4085 28.7212C71.7259 29.1825 72.2231 29.4131 72.9002 29.4131C73.4799 29.4131 73.9116 29.284 74.1951 29.0259V27.5913H72.6463V26.0615H76.4231V29.8574ZM80.6121 31H78.3904V21.7578H80.6121V31ZM87.448 28.5435C87.448 28.2176 87.3316 27.9637 87.0989 27.7817C86.8704 27.5998 86.4662 27.4115 85.8865 27.2168C85.3067 27.0221 84.8328 26.8338 84.4646 26.6519C83.267 26.0636 82.6682 25.2554 82.6682 24.2271C82.6682 23.715 82.8163 23.2643 83.1125 22.875C83.413 22.4814 83.8362 22.1768 84.3821 21.9609C84.928 21.7409 85.5416 21.6309 86.2229 21.6309C86.8873 21.6309 87.4818 21.7493 88.0066 21.9863C88.5356 22.2233 88.946 22.5618 89.238 23.002C89.53 23.4378 89.676 23.9372 89.676 24.5H87.4543C87.4543 24.1234 87.338 23.8314 87.1052 23.624C86.8767 23.4167 86.5657 23.313 86.1721 23.313C85.7743 23.313 85.4591 23.4019 85.2263 23.5796C84.9978 23.7531 84.8835 23.9753 84.8835 24.2461C84.8835 24.4831 85.0105 24.6989 85.2644 24.8936C85.5183 25.084 85.9648 25.2829 86.6038 25.4902C87.2427 25.6934 87.7675 25.9134 88.178 26.1504C89.1767 26.7259 89.676 27.5194 89.676 28.5308C89.676 29.339 89.3713 29.9738 88.762 30.4351C88.1526 30.8963 87.3168 31.127 86.2546 31.127C85.5056 31.127 84.8264 30.9937 84.217 30.7271C83.6119 30.4562 83.1549 30.0881 82.8459 29.6226C82.5413 29.1528 82.3889 28.6133 82.3889 28.0039H84.6233C84.6233 28.499 84.7502 28.8651 85.0041 29.1021C85.2623 29.3348 85.6791 29.4512 86.2546 29.4512C86.6228 29.4512 86.9127 29.3729 87.1243 29.2163C87.3401 29.0555 87.448 28.8312 87.448 28.5435ZM98.594 23.478H95.82V31H93.592V23.478H90.8689V21.7578H98.594V23.478ZM105.792 27.0835H102.288V29.2861H106.426V31H100.06V21.7578H106.439V23.478H102.288V25.4268H105.792V27.0835ZM111.288 27.7373H110.082V31H107.854V21.7578H111.491C112.587 21.7578 113.444 22.0011 114.062 22.4878C114.68 22.9744 114.989 23.6621 114.989 24.5508C114.989 25.194 114.858 25.7272 114.595 26.1504C114.337 26.5736 113.931 26.9163 113.377 27.1787L115.306 30.9048V31H112.92L111.288 27.7373ZM110.082 26.0171H111.491C111.915 26.0171 112.232 25.9071 112.444 25.687C112.659 25.4627 112.767 25.1517 112.767 24.7539C112.767 24.3561 112.659 24.0451 112.444 23.8208C112.228 23.5923 111.91 23.478 111.491 23.478H110.082V26.0171Z" fill="white"/>
</svg>
