<svg width="167" height="52" viewBox="0 0 167 52" fill="none" xmlns="http://www.w3.org/2000/svg">
<rect x="1" y="1" width="165" height="50" rx="5" fill="white" stroke="black" stroke-width="2"/>
<path d="M64.2439 29.2861H68.1224V31H62.0159V21.7578H64.2439V29.2861ZM77.0022 26.5693C77.0022 27.4707 76.8351 28.2684 76.5008 28.9624C76.1665 29.6564 75.6904 30.1917 75.0725 30.5684C74.4589 30.9408 73.7586 31.127 72.9715 31.127C72.1844 31.127 71.4861 30.9471 70.8767 30.5874C70.2674 30.2235 69.7913 29.7051 69.4485 29.0322C69.11 28.3594 68.9322 27.5871 68.9153 26.7153V26.1948C68.9153 25.2892 69.0804 24.4915 69.4104 23.8018C69.7447 23.1077 70.2208 22.5724 70.8387 22.1958C71.4607 21.8192 72.1674 21.6309 72.9588 21.6309C73.7416 21.6309 74.4399 21.8171 75.0535 22.1895C75.6671 22.5618 76.1432 23.0929 76.4817 23.7827C76.8245 24.4683 76.998 25.2554 77.0022 26.144V26.5693ZM74.7361 26.1821C74.7361 25.2638 74.5817 24.5677 74.2727 24.0938C73.968 23.6156 73.5301 23.3765 72.9588 23.3765C71.8416 23.3765 71.2513 24.2144 71.1878 25.8901L71.1814 26.5693C71.1814 27.4749 71.3317 28.1711 71.6321 28.6577C71.9326 29.1444 72.379 29.3877 72.9715 29.3877C73.5343 29.3877 73.968 29.1486 74.2727 28.6704C74.5774 28.1922 74.7319 27.5046 74.7361 26.6074V26.1821ZM86.2376 29.8574C85.8948 30.2383 85.3933 30.5451 84.7332 30.7778C84.073 31.0106 83.3494 31.127 82.5623 31.127C81.352 31.127 80.385 30.7567 79.6614 30.0161C78.9378 29.2756 78.5505 28.2451 78.4998 26.9248L78.4934 26.125C78.4934 25.2152 78.6542 24.4217 78.9758 23.7446C79.2975 23.0633 79.7566 22.5407 80.3533 22.1768C80.9542 21.8086 81.6482 21.6245 82.4353 21.6245C83.5864 21.6245 84.4793 21.889 85.114 22.418C85.753 22.9427 86.1254 23.7277 86.2312 24.7729H84.0857C84.0095 24.2567 83.8445 23.8885 83.5906 23.6685C83.3367 23.4484 82.977 23.3384 82.5115 23.3384C81.9529 23.3384 81.5213 23.5754 81.2166 24.0493C80.9119 24.5233 80.7574 25.2004 80.7532 26.0806V26.6392C80.7532 27.5617 80.9098 28.2557 81.2229 28.7212C81.5403 29.1825 82.0375 29.4131 82.7146 29.4131C83.2944 29.4131 83.726 29.284 84.0095 29.0259V27.5913H82.4607V26.0615H86.2376V29.8574ZM94.1838 31H91.9621V21.7578H94.1838V31ZM103.971 31H101.756L98.4807 25.249V31H96.2526V21.7578H98.4807L101.75 27.5088V21.7578H103.971V31Z" fill="black"/>
</svg>
