<svg width="343" height="52" viewBox="0 0 343 52" fill="none" xmlns="http://www.w3.org/2000/svg">
<rect x="1" y="1" width="341" height="50" rx="5" fill="black" stroke="black" stroke-width="2"/>
<path d="M147.264 29.2861H151.142V31H145.036V21.7578H147.264V29.2861ZM160.022 26.5693C160.022 27.4707 159.855 28.2684 159.521 28.9624C159.186 29.6564 158.71 30.1917 158.093 30.5684C157.479 30.9408 156.779 31.127 155.991 31.127C155.204 31.127 154.506 30.9471 153.897 30.5874C153.287 30.2235 152.811 29.7051 152.469 29.0322C152.13 28.3594 151.952 27.5871 151.935 26.7153V26.1948C151.935 25.2892 152.1 24.4915 152.43 23.8018C152.765 23.1077 153.241 22.5724 153.859 22.1958C154.481 21.8192 155.187 21.6309 155.979 21.6309C156.762 21.6309 157.46 21.8171 158.074 22.1895C158.687 22.5618 159.163 23.0929 159.502 23.7827C159.845 24.4683 160.018 25.2554 160.022 26.144V26.5693ZM157.756 26.1821C157.756 25.2638 157.602 24.5677 157.293 24.0938C156.988 23.6156 156.55 23.3765 155.979 23.3765C154.862 23.3765 154.271 24.2144 154.208 25.8901L154.201 26.5693C154.201 27.4749 154.352 28.1711 154.652 28.6577C154.953 29.1444 155.399 29.3877 155.991 29.3877C156.554 29.3877 156.988 29.1486 157.293 28.6704C157.597 28.1922 157.752 27.5046 157.756 26.6074V26.1821ZM169.258 29.8574C168.915 30.2383 168.413 30.5451 167.753 30.7778C167.093 31.0106 166.369 31.127 165.582 31.127C164.372 31.127 163.405 30.7567 162.681 30.0161C161.958 29.2756 161.571 28.2451 161.52 26.9248L161.513 26.125C161.513 25.2152 161.674 24.4217 161.996 23.7446C162.317 23.0633 162.777 22.5407 163.373 22.1768C163.974 21.8086 164.668 21.6245 165.455 21.6245C166.606 21.6245 167.499 21.889 168.134 22.418C168.773 22.9427 169.145 23.7277 169.251 24.7729H167.106C167.03 24.2567 166.865 23.8885 166.611 23.6685C166.357 23.4484 165.997 23.3384 165.532 23.3384C164.973 23.3384 164.541 23.5754 164.237 24.0493C163.932 24.5233 163.777 25.2004 163.773 26.0806V26.6392C163.773 27.5617 163.93 28.2557 164.243 28.7212C164.56 29.1825 165.058 29.4131 165.735 29.4131C166.314 29.4131 166.746 29.284 167.03 29.0259V27.5913H165.481V26.0615H169.258V29.8574ZM178.899 26.5693C178.899 27.4707 178.732 28.2684 178.398 28.9624C178.063 29.6564 177.587 30.1917 176.969 30.5684C176.356 30.9408 175.656 31.127 174.868 31.127C174.081 31.127 173.383 30.9471 172.774 30.5874C172.164 30.2235 171.688 29.7051 171.345 29.0322C171.007 28.3594 170.829 27.5871 170.812 26.7153V26.1948C170.812 25.2892 170.977 24.4915 171.307 23.8018C171.642 23.1077 172.118 22.5724 172.736 22.1958C173.358 21.8192 174.064 21.6309 174.856 21.6309C175.639 21.6309 176.337 21.8171 176.95 22.1895C177.564 22.5618 178.04 23.0929 178.379 23.7827C178.721 24.4683 178.895 25.2554 178.899 26.144V26.5693ZM176.633 26.1821C176.633 25.2638 176.479 24.5677 176.17 24.0938C175.865 23.6156 175.427 23.3765 174.856 23.3765C173.739 23.3765 173.148 24.2144 173.085 25.8901L173.078 26.5693C173.078 27.4749 173.229 28.1711 173.529 28.6577C173.829 29.1444 174.276 29.3877 174.868 29.3877C175.431 29.3877 175.865 29.1486 176.17 28.6704C176.474 28.1922 176.629 27.5046 176.633 26.6074V26.1821ZM187.817 21.7578V27.8071C187.817 28.4927 187.671 29.0872 187.379 29.5908C187.087 30.0902 186.668 30.471 186.122 30.7334C185.576 30.9958 184.931 31.127 184.186 31.127C183.061 31.127 182.174 30.835 181.527 30.251C180.879 29.667 180.549 28.8672 180.536 27.8516V21.7578H182.777V27.896C182.802 28.9074 183.272 29.4131 184.186 29.4131C184.648 29.4131 184.997 29.2861 185.234 29.0322C185.471 28.7783 185.589 28.3657 185.589 27.7944V21.7578H187.817ZM196.989 23.478H194.215V31H191.987V23.478H189.264V21.7578H196.989V23.478Z" fill="white"/>
</svg>
