<svg width="343" height="52" viewBox="0 0 343 52" fill="none" xmlns="http://www.w3.org/2000/svg">
<rect x="1" y="1" width="341" height="50" rx="5" fill="black" stroke="black" stroke-width="2"/>
<path d="M149.385 23.478H146.611V31H144.383V23.478H141.659V21.7578H149.385V23.478ZM158.112 27.5532L159.172 21.7578H161.381L159.42 31H157.109L155.871 25.7314L154.659 31H152.355L150.387 21.7578H152.602L153.662 27.5532L154.932 21.7578H156.824L158.112 27.5532ZM165.145 31H162.923V21.7578H165.145V31ZM174.279 23.478H171.505V31H169.277V23.478H166.553V21.7578H174.279V23.478ZM183.101 23.478H180.327V31H178.099V23.478H175.376V21.7578H183.101V23.478ZM190.299 27.0835H186.795V29.2861H190.934V31H184.567V21.7578H190.946V23.478H186.795V25.4268H190.299V27.0835ZM195.796 27.7373H194.59V31H192.362V21.7578H195.999C197.095 21.7578 197.952 22.0011 198.57 22.4878C199.187 22.9744 199.496 23.6621 199.496 24.5508C199.496 25.194 199.365 25.7272 199.103 26.1504C198.845 26.5736 198.438 26.9163 197.884 27.1787L199.814 30.9048V31H197.427L195.796 27.7373ZM194.59 26.0171H195.999C196.422 26.0171 196.739 25.9071 196.951 25.687C197.167 25.4627 197.275 25.1517 197.275 24.7539C197.275 24.3561 197.167 24.0451 196.951 23.8208C196.735 23.5923 196.418 23.478 195.999 23.478H194.59V26.0171Z" fill="white"/>
</svg>
